<mxfile host="app.diagrams.net" modified="2023-12-21T16:07:28.359Z" agent="Mozilla/5.0 (Windows NT 10.0; Win64; x64) AppleWebKit/537.36 (KHTML, like Gecko) Chrome/120.0.0.0 Safari/537.36" etag="UQE3-KKu1xaNr0Z7kZ8y" version="22.1.11" type="device">
  <diagram name="Страница — 1" id="9Cxa7UFDRMC9ZDxqAGTg">
    <mxGraphModel dx="541" dy="1892" grid="1" gridSize="10" guides="1" tooltips="1" connect="1" arrows="1" fold="1" page="1" pageScale="1" pageWidth="827" pageHeight="1169" math="0" shadow="0">
      <root>
        <mxCell id="0" />
        <mxCell id="1" parent="0" />
        <mxCell id="fm5eaoWmc_Ifg7wQIcX8-1" value="1" style="ellipse;whiteSpace=wrap;html=1;aspect=fixed;" vertex="1" parent="1">
          <mxGeometry x="390" y="280" width="80" height="80" as="geometry" />
        </mxCell>
        <mxCell id="fm5eaoWmc_Ifg7wQIcX8-2" value="2" style="ellipse;whiteSpace=wrap;html=1;aspect=fixed;" vertex="1" parent="1">
          <mxGeometry x="230" y="280" width="80" height="80" as="geometry" />
        </mxCell>
        <mxCell id="fm5eaoWmc_Ifg7wQIcX8-3" value="0" style="ellipse;whiteSpace=wrap;html=1;aspect=fixed;" vertex="1" parent="1">
          <mxGeometry x="430" y="110" width="80" height="80" as="geometry" />
        </mxCell>
        <mxCell id="fm5eaoWmc_Ifg7wQIcX8-4" value="4" style="ellipse;whiteSpace=wrap;html=1;aspect=fixed;" vertex="1" parent="1">
          <mxGeometry x="310" y="30" width="80" height="80" as="geometry" />
        </mxCell>
        <mxCell id="fm5eaoWmc_Ifg7wQIcX8-5" value="3" style="ellipse;whiteSpace=wrap;html=1;aspect=fixed;" vertex="1" parent="1">
          <mxGeometry x="190" y="110" width="80" height="80" as="geometry" />
        </mxCell>
        <mxCell id="fm5eaoWmc_Ifg7wQIcX8-6" value="0-1&#xa;0-2&#xa;1-3&#xa;2-3&#xa;3-4&#xa;4-0&#xa;4-1&#xa;4-2" style="text;whiteSpace=wrap;html=1;" vertex="1" parent="1">
          <mxGeometry x="585" width="50" height="140" as="geometry" />
        </mxCell>
        <mxCell id="fm5eaoWmc_Ifg7wQIcX8-7" value="" style="endArrow=none;html=1;rounded=0;entryX=1;entryY=0;entryDx=0;entryDy=0;exitX=0;exitY=0.5;exitDx=0;exitDy=0;" edge="1" parent="1" source="fm5eaoWmc_Ifg7wQIcX8-4" target="fm5eaoWmc_Ifg7wQIcX8-5">
          <mxGeometry width="50" height="50" relative="1" as="geometry">
            <mxPoint x="370" y="300" as="sourcePoint" />
            <mxPoint x="420" y="250" as="targetPoint" />
          </mxGeometry>
        </mxCell>
        <mxCell id="fm5eaoWmc_Ifg7wQIcX8-8" value="" style="endArrow=none;html=1;rounded=0;entryX=0;entryY=0;entryDx=0;entryDy=0;exitX=1;exitY=0.5;exitDx=0;exitDy=0;" edge="1" parent="1" source="fm5eaoWmc_Ifg7wQIcX8-4" target="fm5eaoWmc_Ifg7wQIcX8-3">
          <mxGeometry width="50" height="50" relative="1" as="geometry">
            <mxPoint x="320" y="80" as="sourcePoint" />
            <mxPoint x="258" y="132" as="targetPoint" />
          </mxGeometry>
        </mxCell>
        <mxCell id="fm5eaoWmc_Ifg7wQIcX8-9" value="" style="endArrow=none;html=1;rounded=0;entryX=0.5;entryY=1;entryDx=0;entryDy=0;exitX=0;exitY=0;exitDx=0;exitDy=0;" edge="1" parent="1" source="fm5eaoWmc_Ifg7wQIcX8-2" target="fm5eaoWmc_Ifg7wQIcX8-5">
          <mxGeometry width="50" height="50" relative="1" as="geometry">
            <mxPoint x="330" y="90" as="sourcePoint" />
            <mxPoint x="268" y="142" as="targetPoint" />
          </mxGeometry>
        </mxCell>
        <mxCell id="fm5eaoWmc_Ifg7wQIcX8-10" value="" style="endArrow=none;html=1;rounded=0;entryX=0.5;entryY=0;entryDx=0;entryDy=0;exitX=0;exitY=1;exitDx=0;exitDy=0;" edge="1" parent="1" source="fm5eaoWmc_Ifg7wQIcX8-4" target="fm5eaoWmc_Ifg7wQIcX8-2">
          <mxGeometry width="50" height="50" relative="1" as="geometry">
            <mxPoint x="340" y="100" as="sourcePoint" />
            <mxPoint x="278" y="152" as="targetPoint" />
          </mxGeometry>
        </mxCell>
        <mxCell id="fm5eaoWmc_Ifg7wQIcX8-11" value="" style="endArrow=none;html=1;rounded=0;entryX=0.5;entryY=0;entryDx=0;entryDy=0;exitX=1;exitY=1;exitDx=0;exitDy=0;" edge="1" parent="1" source="fm5eaoWmc_Ifg7wQIcX8-4" target="fm5eaoWmc_Ifg7wQIcX8-1">
          <mxGeometry width="50" height="50" relative="1" as="geometry">
            <mxPoint x="350" y="110" as="sourcePoint" />
            <mxPoint x="288" y="162" as="targetPoint" />
          </mxGeometry>
        </mxCell>
        <mxCell id="fm5eaoWmc_Ifg7wQIcX8-12" value="" style="endArrow=none;html=1;rounded=0;entryX=1;entryY=0;entryDx=0;entryDy=0;exitX=0;exitY=0.5;exitDx=0;exitDy=0;" edge="1" parent="1" source="fm5eaoWmc_Ifg7wQIcX8-3" target="fm5eaoWmc_Ifg7wQIcX8-2">
          <mxGeometry width="50" height="50" relative="1" as="geometry">
            <mxPoint x="381" y="240" as="sourcePoint" />
            <mxPoint x="319" y="292" as="targetPoint" />
          </mxGeometry>
        </mxCell>
        <mxCell id="fm5eaoWmc_Ifg7wQIcX8-13" value="" style="endArrow=none;html=1;rounded=0;entryX=1;entryY=0;entryDx=0;entryDy=0;exitX=0.5;exitY=1;exitDx=0;exitDy=0;" edge="1" parent="1" source="fm5eaoWmc_Ifg7wQIcX8-3" target="fm5eaoWmc_Ifg7wQIcX8-1">
          <mxGeometry width="50" height="50" relative="1" as="geometry">
            <mxPoint x="370" y="130" as="sourcePoint" />
            <mxPoint x="308" y="182" as="targetPoint" />
          </mxGeometry>
        </mxCell>
        <mxCell id="fm5eaoWmc_Ifg7wQIcX8-14" value="" style="endArrow=none;html=1;rounded=0;entryX=0;entryY=0;entryDx=0;entryDy=0;exitX=1;exitY=1;exitDx=0;exitDy=0;" edge="1" parent="1" source="fm5eaoWmc_Ifg7wQIcX8-5" target="fm5eaoWmc_Ifg7wQIcX8-1">
          <mxGeometry width="50" height="50" relative="1" as="geometry">
            <mxPoint x="450" y="170" as="sourcePoint" />
            <mxPoint x="308" y="302" as="targetPoint" />
          </mxGeometry>
        </mxCell>
        <mxCell id="fm5eaoWmc_Ifg7wQIcX8-15" value="5 вершин 8 ребер" style="text;html=1;align=center;verticalAlign=middle;resizable=0;points=[];autosize=1;strokeColor=none;fillColor=none;" vertex="1" parent="1">
          <mxGeometry x="550" y="-30" width="120" height="30" as="geometry" />
        </mxCell>
        <mxCell id="fm5eaoWmc_Ifg7wQIcX8-16" value="Степени всех вершин:&#xa;Вершина 0:      3&#xa;Вершина 1:      3&#xa;Вершина 2:      3&#xa;Вершина 3:      3&#xa;Вершина 4:      4" style="text;whiteSpace=wrap;html=1;" vertex="1" parent="1">
          <mxGeometry x="545" y="130" width="130" height="110" as="geometry" />
        </mxCell>
        <mxCell id="fm5eaoWmc_Ifg7wQIcX8-17" value="3" style="ellipse;whiteSpace=wrap;html=1;aspect=fixed;" vertex="1" parent="1">
          <mxGeometry x="410" y="560" width="80" height="80" as="geometry" />
        </mxCell>
        <mxCell id="fm5eaoWmc_Ifg7wQIcX8-18" value="0" style="ellipse;whiteSpace=wrap;html=1;aspect=fixed;" vertex="1" parent="1">
          <mxGeometry x="250" y="630" width="80" height="80" as="geometry" />
        </mxCell>
        <mxCell id="fm5eaoWmc_Ifg7wQIcX8-20" value="2" style="ellipse;whiteSpace=wrap;html=1;aspect=fixed;" vertex="1" parent="1">
          <mxGeometry x="374" y="420" width="80" height="80" as="geometry" />
        </mxCell>
        <mxCell id="fm5eaoWmc_Ifg7wQIcX8-21" value="1" style="ellipse;whiteSpace=wrap;html=1;aspect=fixed;" vertex="1" parent="1">
          <mxGeometry x="250" y="480" width="80" height="80" as="geometry" />
        </mxCell>
        <mxCell id="fm5eaoWmc_Ifg7wQIcX8-22" value="" style="endArrow=none;html=1;rounded=0;entryX=1;entryY=0;entryDx=0;entryDy=0;exitX=0;exitY=0.5;exitDx=0;exitDy=0;" edge="1" parent="1" source="fm5eaoWmc_Ifg7wQIcX8-20" target="fm5eaoWmc_Ifg7wQIcX8-21">
          <mxGeometry width="50" height="50" relative="1" as="geometry">
            <mxPoint x="430" y="670" as="sourcePoint" />
            <mxPoint x="480" y="620" as="targetPoint" />
          </mxGeometry>
        </mxCell>
        <mxCell id="fm5eaoWmc_Ifg7wQIcX8-24" value="" style="endArrow=none;html=1;rounded=0;entryX=0.5;entryY=1;entryDx=0;entryDy=0;exitX=0.5;exitY=0;exitDx=0;exitDy=0;" edge="1" parent="1" source="fm5eaoWmc_Ifg7wQIcX8-18" target="fm5eaoWmc_Ifg7wQIcX8-21">
          <mxGeometry width="50" height="50" relative="1" as="geometry">
            <mxPoint x="390" y="460" as="sourcePoint" />
            <mxPoint x="328" y="512" as="targetPoint" />
          </mxGeometry>
        </mxCell>
        <mxCell id="fm5eaoWmc_Ifg7wQIcX8-26" value="" style="endArrow=none;html=1;rounded=0;entryX=0.5;entryY=0;entryDx=0;entryDy=0;exitX=1;exitY=1;exitDx=0;exitDy=0;" edge="1" parent="1" source="fm5eaoWmc_Ifg7wQIcX8-20" target="fm5eaoWmc_Ifg7wQIcX8-17">
          <mxGeometry width="50" height="50" relative="1" as="geometry">
            <mxPoint x="410" y="480" as="sourcePoint" />
            <mxPoint x="348" y="532" as="targetPoint" />
          </mxGeometry>
        </mxCell>
        <mxCell id="fm5eaoWmc_Ifg7wQIcX8-29" value="" style="endArrow=none;html=1;rounded=0;entryX=0;entryY=0.5;entryDx=0;entryDy=0;exitX=1;exitY=1;exitDx=0;exitDy=0;" edge="1" parent="1" source="fm5eaoWmc_Ifg7wQIcX8-21" target="fm5eaoWmc_Ifg7wQIcX8-17">
          <mxGeometry width="50" height="50" relative="1" as="geometry">
            <mxPoint x="510" y="540" as="sourcePoint" />
            <mxPoint x="368" y="672" as="targetPoint" />
          </mxGeometry>
        </mxCell>
        <mxCell id="fm5eaoWmc_Ifg7wQIcX8-30" value="4 вершины 4 ребра" style="text;html=1;align=center;verticalAlign=middle;resizable=0;points=[];autosize=1;strokeColor=none;fillColor=none;" vertex="1" parent="1">
          <mxGeometry x="525" y="420" width="130" height="30" as="geometry" />
        </mxCell>
        <mxCell id="fm5eaoWmc_Ifg7wQIcX8-31" value="1-2&lt;br&gt;2-3&lt;br&gt;3-4&lt;br&gt;4-2" style="text;whiteSpace=wrap;html=1;" vertex="1" parent="1">
          <mxGeometry x="565" y="450" width="50" height="70" as="geometry" />
        </mxCell>
        <mxCell id="fm5eaoWmc_Ifg7wQIcX8-32" value="Степени всех вершин:&#xa;Вершина 0:      1&#xa;Вершина 1:      3&#xa;Вершина 2:      2&#xa;Вершина 3:      2" style="text;whiteSpace=wrap;" vertex="1" parent="1">
          <mxGeometry x="525" y="520" width="160" height="100" as="geometry" />
        </mxCell>
      </root>
    </mxGraphModel>
  </diagram>
</mxfile>
